name ./resultDataOpenSim/trcMotMarkerGrf/sub06/grf-12-05.mot
datacolumns 19
datarows 30
range 1.54800000 1.66400000
endheader

                time	     ground_force_vx	     ground_force_vy	     ground_force_vz	     ground_force_px	     ground_force_py	     ground_force_pz	   l_ground_force_vx	   l_ground_force_vy	   l_ground_force_vz	   l_ground_force_px	   l_ground_force_py	   l_ground_force_pz	     ground_torque_x	     ground_torque_y	     ground_torque_z	   l_ground_torque_x	   l_ground_torque_y	   l_ground_torque_z	
          1.54800000	        108.65129469	        620.85274812	        -17.33516544	          0.87853484	          0.00000000	          0.06229429	          0.00000000	          0.00000000	          0.00000000	          0.00000000	          0.00000000	          0.00000000	          0.00000000	          4.06741375	          0.00000000	          0.00000000	          0.00000000	          0.00000000	
          1.55200000	        113.98205336	        631.33074607	        -15.86565852	          0.87888985	          0.00000000	          0.06181661	          0.00000000	          0.00000000	          0.00000000	          0.00000000	          0.00000000	          0.00000000	          0.00000000	          4.12985654	          0.00000000	          0.00000000	          0.00000000	          0.00000000	
          1.55600000	        119.48140763	        640.83670010	        -14.69578460	          0.87921200	          0.00000000	          0.06135010	          0.00000000	          0.00000000	          0.00000000	          0.00000000	          0.00000000	          0.00000000	          0.00000000	          4.17295822	          0.00000000	          0.00000000	          0.00000000	          0.00000000	
          1.56000000	        125.22487045	        649.17151779	        -13.98838782	          0.87949310	          0.00000000	          0.06090070	          0.00000000	          0.00000000	          0.00000000	          0.00000000	          0.00000000	          0.00000000	          0.00000000	          4.20356442	          0.00000000	          0.00000000	          0.00000000	          0.00000000	
          1.56400000	        131.19863795	        656.14103916	        -13.83129643	          0.87973676	          0.00000000	          0.06047365	          0.00000000	          0.00000000	          0.00000000	          0.00000000	          0.00000000	          0.00000000	          0.00000000	          4.22854655	          0.00000000	          0.00000000	          0.00000000	          0.00000000	
          1.56800000	        137.30890216	        661.57458123	        -14.21918753	          0.87994870	          0.00000000	          0.06007576	          0.00000000	          0.00000000	          0.00000000	          0.00000000	          0.00000000	          0.00000000	          0.00000000	          4.25396823	          0.00000000	          0.00000000	          0.00000000	          0.00000000	
          1.57200000	        143.42632326	        665.35467938	        -15.04663087	          0.88013872	          0.00000000	          0.05971250	          0.00000000	          0.00000000	          0.00000000	          0.00000000	          0.00000000	          0.00000000	          0.00000000	          4.28425194	          0.00000000	          0.00000000	          0.00000000	          0.00000000	
          1.57600000	        149.45500230	        667.42964554	        -16.11877781	          0.88031556	          0.00000000	          0.05937993	          0.00000000	          0.00000000	          0.00000000	          0.00000000	          0.00000000	          0.00000000	          0.00000000	          4.32081079	          0.00000000	          0.00000000	          0.00000000	          0.00000000	
          1.58000000	        155.40650897	        667.79039899	        -17.18461039	          0.88047608	          0.00000000	          0.05906840	          0.00000000	          0.00000000	          0.00000000	          0.00000000	          0.00000000	          0.00000000	          0.00000000	          4.36008443	          0.00000000	          0.00000000	          0.00000000	          0.00000000	
          1.58400000	        161.43211014	        666.43007054	        -17.99365090	          0.88060390	          0.00000000	          0.05876832	          0.00000000	          0.00000000	          0.00000000	          0.00000000	          0.00000000	          0.00000000	          0.00000000	          4.39201778	          0.00000000	          0.00000000	          0.00000000	          0.00000000	
          1.58800000	        167.74346428	        663.30369225	        -18.36150587	          0.88063785	          0.00000000	          0.05846960	          0.00000000	          0.00000000	          0.00000000	          0.00000000	          0.00000000	          0.00000000	          0.00000000	          4.40088440	          0.00000000	          0.00000000	          0.00000000	          0.00000000	
          1.59200000	        174.45713388	        658.30849603	        -18.20331998	          0.88052345	          0.00000000	          0.05817418	          0.00000000	          0.00000000	          0.00000000	          0.00000000	          0.00000000	          0.00000000	          0.00000000	          4.36966768	          0.00000000	          0.00000000	          0.00000000	          0.00000000	
          1.59600000	        181.50612001	        651.31159203	        -17.51905890	          0.88028674	          0.00000000	          0.05789053	          0.00000000	          0.00000000	          0.00000000	          0.00000000	          0.00000000	          0.00000000	          0.00000000	          4.28672499	          0.00000000	          0.00000000	          0.00000000	          0.00000000	
          1.60000000	        188.66000764	        642.18015262	        -16.37489267	          0.87995514	          0.00000000	          0.05761204	          0.00000000	          0.00000000	          0.00000000	          0.00000000	          0.00000000	          0.00000000	          0.00000000	          4.15123590	          0.00000000	          0.00000000	          0.00000000	          0.00000000	
          1.60400000	        195.58170650	        630.75488536	        -14.89418128	          0.87951347	          0.00000000	          0.05733986	          0.00000000	          0.00000000	          0.00000000	          0.00000000	          0.00000000	          0.00000000	          0.00000000	          3.97417786	          0.00000000	          0.00000000	          0.00000000	          0.00000000	
          1.60800000	        201.88219641	        616.79809382	        -13.22291709	          0.87900136	          0.00000000	          0.05708433	          0.00000000	          0.00000000	          0.00000000	          0.00000000	          0.00000000	          0.00000000	          0.00000000	          3.77400839	          0.00000000	          0.00000000	          0.00000000	          0.00000000	
          1.61200000	        207.18410684	        599.97960113	        -11.49414841	          0.87844129	          0.00000000	          0.05684827	          0.00000000	          0.00000000	          0.00000000	          0.00000000	          0.00000000	          0.00000000	          0.00000000	          3.56915905	          0.00000000	          0.00000000	          0.00000000	          0.00000000	
          1.61600000	        211.17792099	        579.91217796	         -9.82458249	          0.87783551	          0.00000000	          0.05663238	          0.00000000	          0.00000000	          0.00000000	          0.00000000	          0.00000000	          0.00000000	          0.00000000	          3.37111442	          0.00000000	          0.00000000	          0.00000000	          0.00000000	
          1.62000000	        213.61131144	        556.19922949	         -8.30541156	          0.87717929	          0.00000000	          0.05643842	          0.00000000	          0.00000000	          0.00000000	          0.00000000	          0.00000000	          0.00000000	          0.00000000	          3.18124855	          0.00000000	          0.00000000	          0.00000000	          0.00000000	
          1.62400000	        214.20191140	        528.48018919	         -6.97434280	          0.87645027	          0.00000000	          0.05626248	          0.00000000	          0.00000000	          0.00000000	          0.00000000	          0.00000000	          0.00000000	          0.00000000	          2.99250893	          0.00000000	          0.00000000	          0.00000000	          0.00000000	
          1.62800000	        212.54255323	        496.49908026	         -5.80244092	          0.87566116	          0.00000000	          0.05610497	          0.00000000	          0.00000000	          0.00000000	          0.00000000	          0.00000000	          0.00000000	          0.00000000	          2.79485323	          0.00000000	          0.00000000	          0.00000000	          0.00000000	
          1.63200000	        208.07633258	        460.20622268	         -4.70528279	          0.87487978	          0.00000000	          0.05597336	          0.00000000	          0.00000000	          0.00000000	          0.00000000	          0.00000000	          0.00000000	          0.00000000	          2.58173540	          0.00000000	          0.00000000	          0.00000000	          0.00000000	
          1.63600000	        200.17782379	        419.87808568	         -3.57052431	          0.87422278	          0.00000000	          0.05587758	          0.00000000	          0.00000000	          0.00000000	          0.00000000	          0.00000000	          0.00000000	          0.00000000	          2.35455152	          0.00000000	          0.00000000	          0.00000000	          0.00000000	
          1.64000000	        188.32027019	        376.22445044	         -2.29424079	          0.87388615	          0.00000000	          0.05582406	          0.00000000	          0.00000000	          0.00000000	          0.00000000	          0.00000000	          0.00000000	          0.00000000	          2.12310425	          0.00000000	          0.00000000	          0.00000000	          0.00000000	
          1.64400000	        172.28116816	        330.43609493	         -0.81773498	          0.87413245	          0.00000000	          0.05581388	          0.00000000	          0.00000000	          0.00000000	          0.00000000	          0.00000000	          0.00000000	          0.00000000	          1.90210750	          0.00000000	          0.00000000	          0.00000000	          0.00000000	
          1.64800000	        152.33434528	        284.12882540	          0.84425932	          0.87525231	          0.00000000	          0.05583934	          0.00000000	          0.00000000	          0.00000000	          0.00000000	          0.00000000	          0.00000000	          0.00000000	          1.70546664	          0.00000000	          0.00000000	          0.00000000	          0.00000000	
          1.65200000	        129.35328074	        239.16074033	          2.59958088	          0.87754244	          0.00000000	          0.05587508	          0.00000000	          0.00000000	          0.00000000	          0.00000000	          0.00000000	          0.00000000	          0.00000000	          1.54087429	          0.00000000	          0.00000000	          0.00000000	          0.00000000	
          1.65600000	        104.74689745	        197.32018604	          4.30428179	          0.88124636	          0.00000000	          0.05584279	          0.00000000	          0.00000000	          0.00000000	          0.00000000	          0.00000000	          0.00000000	          0.00000000	          1.40698928	          0.00000000	          0.00000000	          0.00000000	          0.00000000	
          1.66000000	         80.21684197	        159.94246076	          5.79541915	          0.88648040	          0.00000000	          0.05559604	          0.00000000	          0.00000000	          0.00000000	          0.00000000	          0.00000000	          0.00000000	          0.00000000	          1.29437367	          0.00000000	          0.00000000	          0.00000000	          0.00000000	
          1.66400000	         57.41612036	        127.63646140	          6.90828166	          0.89312164	          0.00000000	          0.05498698	          0.00000000	          0.00000000	          0.00000000	          0.00000000	          0.00000000	          0.00000000	          0.00000000	          1.18991329	          0.00000000	          0.00000000	          0.00000000	          0.00000000	
